<?xml version="1.0" encoding="UTF-8" standalone="no"?>
<svg
   width="297mm"
   height="210mm"
   version="1.1"
   viewBox="0 0 1052.3622 744.09448"
   id="svg25251"
   sodipodi:docname="apizza-logo.svg"
   inkscape:version="1.2.2 (732a01da63, 2022-12-09)"
   xmlns:inkscape="http://www.inkscape.org/namespaces/inkscape"
   xmlns:sodipodi="http://sodipodi.sourceforge.net/DTD/sodipodi-0.dtd"
   xmlns="http://www.w3.org/2000/svg"
   xmlns:svg="http://www.w3.org/2000/svg"
   xmlns:rdf="http://www.w3.org/1999/02/22-rdf-syntax-ns#"
   xmlns:cc="http://creativecommons.org/ns#"
   xmlns:dc="http://purl.org/dc/elements/1.1/">
  <title
     id="title1279">Apizza</title>
  <metadata
     id="metadata25257">
    <rdf:RDF>
      <cc:Work
         rdf:about="">
        <dc:format>image/svg+xml</dc:format>
        <dc:type
           rdf:resource="http://purl.org/dc/dcmitype/StillImage" />
        <cc:license
           rdf:resource="http://creativecommons.org/publicdomain/zero/1.0/" />
        <dc:title>Apizza</dc:title>
      </cc:Work>
      <cc:License
         rdf:about="http://creativecommons.org/publicdomain/zero/1.0/">
        <cc:permits
           rdf:resource="http://creativecommons.org/ns#Reproduction" />
        <cc:permits
           rdf:resource="http://creativecommons.org/ns#Distribution" />
        <cc:permits
           rdf:resource="http://creativecommons.org/ns#DerivativeWorks" />
      </cc:License>
    </rdf:RDF>
  </metadata>
  <defs
     id="defs25255" />
  <sodipodi:namedview
     pagecolor="#ffffff"
     bordercolor="#666666"
     borderopacity="1"
     objecttolerance="10"
     gridtolerance="10"
     guidetolerance="10"
     inkscape:pageopacity="0"
     inkscape:pageshadow="2"
     inkscape:window-width="1920"
     inkscape:window-height="1009"
     id="namedview25253"
     showgrid="false"
     inkscape:snap-global="false"
     inkscape:zoom="0.77"
     inkscape:cx="456.49351"
     inkscape:cy="538.96104"
     inkscape:window-x="-8"
     inkscape:window-y="-8"
     inkscape:window-maximized="1"
     inkscape:current-layer="g29787"
     inkscape:showpageshadow="2"
     inkscape:pagecheckerboard="0"
     inkscape:deskcolor="#d1d1d1"
     inkscape:document-units="mm" />
  <g
     transform="translate(0 -308.27)"
     stroke="#000"
     id="g25249">
    <g
       aria-label="PIZZA"
       transform="scale(1.1939106,0.83758368)"
       style="font-style:normal;font-weight:normal;font-size:115.72011566px;line-height:1.25;font-family:sans-serif;letter-spacing:0px;word-spacing:0px;fill:#ffe728;fill-opacity:1;stroke:#000000;stroke-width:6.17071819;stroke-linecap:round;stroke-linejoin:round;stroke-miterlimit:4;stroke-dasharray:none;stroke-opacity:1"
       id="text29046">
      <g
         id="g29730">
        <g
           transform="matrix(0.99302048,0,0,1.363929,210.42606,-77.522569)"
           id="g25081"
           style="stroke-width:6.06549978" />
        <g
           id="g29787">
          <g
             style="stroke-width:8.49170017"
             id="g25065"
             transform="matrix(0.99302048,0,0,1.363929,-153.10882,246.02323)">
            <circle
               style="fill:#ff1100"
               id="circle25061"
               r="255"
               cy="416.73999"
               cx="606.76001" />
            <ellipse
               style="fill:#ffe728"
               id="ellipse25063"
               ry="194.41"
               rx="199.11"
               cy="371.92999"
               cx="608.35999" />
          </g>
          <ellipse
             style="font-style:normal;font-weight:normal;font-size:115.72011566px;line-height:1.25;font-family:sans-serif;letter-spacing:0px;word-spacing:0px;fill:#ffffff;fill-opacity:1;stroke:#000000;stroke-width:6.06549978;stroke-linecap:round;stroke-linejoin:round;stroke-miterlimit:4;stroke-dasharray:none;stroke-opacity:1"
             id="ellipse25067"
             ry="61.113998"
             rx="103.54"
             cy="709.41998"
             cx="239.41"
             transform="matrix(0.99302048,0,0,1.363929,210.42606,-77.522569)" />
          <ellipse
             style="font-style:normal;font-weight:normal;font-size:115.72011566px;line-height:1.25;font-family:sans-serif;letter-spacing:0px;word-spacing:0px;fill:#ffb280;fill-opacity:1;stroke:#000000;stroke-width:6.06549978;stroke-linecap:round;stroke-linejoin:round;stroke-miterlimit:4;stroke-dasharray:none;stroke-opacity:1"
             id="ellipse25069"
             ry="73.740997"
             rx="49.75"
             cy="599.31"
             cx="240.16"
             transform="matrix(0.99302048,0,0,1.363929,210.42606,-77.522569)" />
          <path
             style="font-style:normal;font-weight:normal;font-size:115.72011566px;line-height:1.25;font-family:sans-serif;letter-spacing:0px;word-spacing:0px;fill:#ffffff;fill-opacity:1;stroke:#000000;stroke-width:6.06549978;stroke-linecap:round;stroke-linejoin:round;stroke-miterlimit:4;stroke-dasharray:none;stroke-opacity:1"
             inkscape:connector-curvature="0"
             id="path25071"
             d="m 240.92,424.05 a 42.426,42.426 0 0 0 -41.949,36.43 42.426,42.426 0 0 0 -20.176,-5.1152 42.426,42.426 0 0 0 -42.426,42.428 42.426,42.426 0 0 0 42.426,42.426 42.426,42.426 0 0 0 10.607,-1.416 v 77.973 h 103.04 v -77.955 a 42.426,42.426 0 0 0 10.605,1.3984 42.426,42.426 0 0 0 42.428,-42.426 42.426,42.426 0 0 0 -42.428,-42.428 42.426,42.426 0 0 0 -20.164,5.1445 42.426,42.426 0 0 0 -41.959,-36.459 z"
             transform="matrix(0.99302048,0,0,1.363929,210.42606,-77.522569)" />
          <g
             style="font-style:normal;font-weight:normal;font-size:115.72011566px;line-height:1.25;font-family:sans-serif;letter-spacing:0px;word-spacing:0px;fill:#000000;fill-opacity:1;stroke:#000000;stroke-width:6.06549978;stroke-linecap:round;stroke-linejoin:round;stroke-miterlimit:4;stroke-dasharray:none;stroke-opacity:1;fill-rule:evenodd"
             id="g25077"
             transform="matrix(0.99302048,0,0,1.363929,206.33412,-72.277582)">
            <path
               style="fill:#000000;fill-opacity:1"
               inkscape:connector-curvature="0"
               id="path25073"
               d="m 246.66,634.18 c 0,0 13.42,-15.17 26.84,-10.956 13.42,4.2138 19.172,20.226 35.467,19.383 16.296,-0.84276 26.84,-17.698 26.84,-17.698 0,0 -1.9172,33.71 -46.97,37.081 -45.0528,3.371 -42.177,-27.811 -42.177,-27.811 z" />
            <path
               style="fill:#000000;fill-opacity:1"
               inkscape:connector-curvature="0"
               id="path25075"
               d="m 242.33,634.18 c 0,0 -13.42,-15.17 -26.84,-10.956 -13.42,4.2138 -19.172,20.226 -35.467,19.383 -16.296,-0.84276 -26.84,-17.698 -26.84,-17.698 0,0 1.9172,33.71 46.97,37.081 45.0528,3.371 42.177,-27.811 42.177,-27.811 z" />
          </g>
          <rect
             style="font-style:normal;font-weight:normal;font-size:115.72011566px;line-height:1.25;font-family:sans-serif;letter-spacing:0px;word-spacing:0px;fill:none;fill-opacity:1;stroke:#000000;stroke-width:6.06549978;stroke-linecap:round;stroke-linejoin:round;stroke-miterlimit:4;stroke-dasharray:none;stroke-opacity:1"
             id="rect25079"
             height="20.023001"
             width="103.04"
             y="596.75"
             x="189.39999"
             transform="matrix(0.99302048,0,0,1.363929,210.42606,-77.522569)" />
          <ellipse
             transform="matrix(0.83758367,0,0,1.1939106,0,-5.576272e-6)"
             cx="536.56293"
             cy="791.79187"
             rx="198.15746"
             ry="65.280434"
             id="ellipse25083"
             style="fill:#c97807;stroke-width:7.05897427;stroke-linecap:round" />
          <ellipse
             transform="matrix(0.83758367,0,0,1.1939106,0,-5.576272e-6)"
             cx="537.4165"
             cy="782.41278"
             rx="187.1553"
             ry="53.448547"
             id="ellipse25085"
             style="fill:#800000;stroke-width:7.05897427;stroke-linecap:round;fill-opacity:1" />
          <path
             transform="matrix(0.83758367,0,0,1.1939106,0,-5.576272e-6)"
             d="m 350.51967,780.08227 c 101.9087,-14.59879 279.19169,-10.97188 374.04976,1.9205"
             id="path25087"
             inkscape:connector-curvature="0"
             style="fill:none;stroke-width:4.23538494" />
          <path
             transform="matrix(0.83758367,0,0,1.1939106,0,-5.576272e-6)"
             d="M 538.68507,725.69238 V 837.46755"
             id="path25089"
             inkscape:connector-curvature="0"
             style="fill:none;stroke-width:4.23538494" />
          <path
             transform="matrix(0.83758367,0,0,1.1939106,0,-5.576272e-6)"
             d="m 429.44594,736.30532 c 73.78206,18.43956 130.88778,35.65103 216.39165,89.66164"
             id="path25091"
             inkscape:connector-curvature="0"
             style="fill:none;stroke-width:4.23538494" />
          <path
             transform="matrix(0.83758367,0,0,1.1939106,0,-5.576272e-6)"
             d="m 645.38707,737.11643 c -75.76316,20.04692 -154.78903,46.02406 -215.49061,89.37261"
             id="path25093"
             inkscape:connector-curvature="0"
             style="fill:none;stroke-width:4.23538494" />
          <g
             style=""
             transform="matrix(-0.99302048,0,0,1.5106878,1045.03,138.8878)"
             id="g25143">
            <path
               d="m 310.88,559 80.097,9.8343 c 2.3128,0.28397 4.2061,1.8759 4.2061,4.2061 v 88.702 c 0,2.3302 -1.8933,4.4901 -4.2061,4.2061 l -80.097,-9.8343 c -2.3128,-0.28397 -4.2061,-1.8759 -4.2061,-4.2061 l 45.176,-44.658 -45.176,-44.044 c -1.6685,-1.6266 1.8933,-4.4901 4.2061,-4.2061 z"
               id="path25139"
               inkscape:connector-curvature="0"
               style="fill:#164300;stroke-width:7.86810017" />
            <path
               d="m 393.98,569.28 -19.775,13.691 0.86924,30.858 19.775,5.2154 c -1.8526,-8.6153 -0.86924,-49.764 -0.86924,-49.764 z"
               id="path25141"
               inkscape:connector-curvature="0"
               style="fill:none;stroke-width:8.29920006;stroke-linejoin:round" />
          </g>
          <path
             transform="matrix(0.83758367,0,0,1.1939106,0,-5.576272e-6)"
             d="m 194.02578,825.12544 94.96121,12.44361 c 2.74201,0.35931 4.98666,2.37362 4.98666,5.32209 v 112.23707 c 0,2.94847 -2.24465,5.68145 -4.98666,5.32209 l -94.96121,-12.44361 c -2.74201,-0.35931 -4.98666,-2.37362 -4.98666,-5.32209 l 53.55966,-56.50699 -53.55966,-55.73008 c -1.97814,-2.05818 2.24465,-5.68145 4.98666,-5.32209 z"
             id="path25145"
             inkscape:connector-curvature="0"
             style="fill:#164300;stroke-width:9.63687801" />
          <path
             transform="matrix(0.83758367,0,0,1.1939106,0,-5.576272e-6)"
             d="m 292.54728,838.133 -23.4448,17.3236 1.03055,39.04547 23.4448,6.59919 c -2.1964,-10.90117 -1.03055,-62.96775 -1.03055,-62.96775 z"
             id="path25147"
             inkscape:connector-curvature="0"
             style="fill:none;stroke-width:10.16489029;stroke-linejoin:round" />
          <path
             transform="matrix(0.83758367,0,0,1.1939106,0,-5.576272e-6)"
             d="m 273.49505,853.64592 c 0,0 176.66293,21.05757 265.36786,20.9981 87.24429,-0.0576 260.99307,-20.9981 260.99307,-20.9981 2.76263,0 4.98666,2.37362 4.98666,5.32209 v 112.23707 c 0,2.94847 -2.22403,5.32209 -4.98666,5.32209 0,0 -174.2325,20.96015 -261.71628,20.99811 -88.45595,0.0389 -264.6328,-20.99811 -264.6328,-20.99811 -2.76263,0 -4.98665,-2.37362 -4.98665,-5.32209 V 858.96801 c 0,-2.94847 2.22402,-5.32209 4.98665,-5.32209 z"
             id="path25149"
             inkscape:connector-curvature="0"
             style="fill:#328e00;stroke-width:9.63687801" />
          <path
             d="m 386.259,1096.4275 q 0,4.5203 -1.58211,8.8597 -1.58211,4.2943 -4.52031,7.2326 -4.02309,3.9778 -8.99543,6.012 -4.92716,2.0341 -12.29527,2.0341 h -10.80356 v 21.9236 h -17.35801 v -67.3076 h 28.5684 q 6.41885,0 10.80356,1.1301 4.42991,1.0849 7.82015,3.2999 4.06828,2.6669 6.19283,6.8256 2.16975,4.1588 2.16975,9.99 z m -17.94565,0.4068 q 0,-2.8478 -1.53692,-4.882 -1.5369,-2.0793 -3.57104,-2.893 -2.7122,-1.0849 -5.28877,-1.1753 -2.57659,-0.1356 -6.87089,-0.1356 h -2.98341 v 20.1607 h 4.97235 q 4.42992,0 7.27772,-0.5425 2.893,-0.5424 4.83673,-2.1698 1.67252,-1.4465 2.39577,-3.4354 0.76846,-2.0341 0.76846,-4.9271 z"
             style="font-weight:bold;fill:#ffe728;fill-opacity:1;stroke:#000000;stroke-width:4.93658;stroke-linecap:round;stroke-linejoin:round;stroke-miterlimit:4;stroke-dasharray:none;stroke-opacity:1"
             id="path29626"
             inkscape:connector-curvature="0" />
          <path
             d="m 437.58978,1154.1185 h -39.41716 v -11.9336 h 11.02957 v -43.4403 h -11.02957 v -11.9337 h 39.41716 v 11.9337 h -11.02956 v 43.4403 h 11.02956 z"
             style="font-weight:bold;fill:#ffe728;fill-opacity:1;stroke:#000000;stroke-width:4.93658;stroke-linecap:round;stroke-linejoin:round;stroke-miterlimit:4;stroke-dasharray:none;stroke-opacity:1"
             id="path29628"
             inkscape:connector-curvature="0" />
          <path
             d="M 506.05256,1154.1185 H 449.5034 v -12.6117 l 33.54075,-41.6774 h -31.91344 v -13.0185 h 53.11373 v 12.8377 L 470.74888,1141.1 h 35.30368 z"
             style="font-weight:bold;fill:#ffe728;fill-opacity:1;stroke:#000000;stroke-width:4.93658;stroke-linecap:round;stroke-linejoin:round;stroke-miterlimit:4;stroke-dasharray:none;stroke-opacity:1"
             id="path29630"
             inkscape:connector-curvature="0" />
          <path
             d="m 574.51534,1141.7627 h -56.54916 v -12.6117 l 33.54075,-41.6774 h -31.91344 v -13.0185 h 53.11373 v 12.8377 l -33.49556,41.4514 h 35.30368 z"
             style="font-weight:bold;fill:#ffe728;fill-opacity:1;stroke:#000000;stroke-width:4.93658;stroke-linecap:round;stroke-linejoin:round;stroke-miterlimit:4;stroke-dasharray:none;stroke-opacity:1"
             id="path29632"
             inkscape:connector-curvature="0" />
          <path
             d="m 656.13214,1129.4069 h -17.94566 l -4.65593,-13.6062 H 608.5784 l -4.65592,13.6062 h -17.49363 l 24.86175,-67.3076 h 19.97979 z m -26.80548,-25.9467 -8.27218,-24.1385 -8.27218,24.1385 z"
             style="font-weight:bold;fill:#ffe728;fill-opacity:1;stroke:#000000;stroke-width:4.93657;stroke-linecap:round;stroke-linejoin:round;stroke-miterlimit:4;stroke-dasharray:none;stroke-opacity:1"
             id="path29634"
             inkscape:connector-curvature="0" />
          <path
             d="m 318.7908,1130.8605 h -17.94566 l -4.65593,-13.6062 h -24.95215 l -4.65592,13.6062 h -17.49363 l 24.86174,-67.3076 h 19.9798 z m -26.80548,-25.9467 -8.27218,-24.1385 -8.27218,24.1385 z"
             style="font-style:normal;font-weight:bold;font-size:115.72px;line-height:1.25;font-family:sans-serif;letter-spacing:0px;word-spacing:0px;fill:#ffe728;fill-opacity:1;stroke:#000000;stroke-width:4.93658;stroke-linecap:round;stroke-linejoin:round;stroke-miterlimit:4;stroke-dasharray:none;stroke-opacity:1"
             id="path29634-7"
             inkscape:connector-curvature="0" />
        </g>
      </g>
    </g>
  </g>
</svg>
